<svg class="icon" xmlns="http://www.w3.org/2000/svg" viewBox="0 0 28 28" title="Mute preview"><path d="M12.5041016,24.9455078 C19.3341797,24.9455078 24.9455078,19.3341797 24.9455078,12.5041016 C24.9455078,5.66132812 19.3341797,0.05 12.4914062,0.05 C5.66132812,0.05 0.05,5.66132812 0.05,12.5041016 C0.05,19.3341797 5.66132812,24.9455078 12.5041016,24.9455078 Z M12.5041016,23.9806641 C6.15644531,23.9806641 1.01484375,18.8390625 1.01484375,12.5041016 C1.01484375,6.16914062 6.15644531,1.01484375 12.4914062,1.01484375 C18.8390625,1.01484375 23.9806641,6.16914062 23.9806641,12.5041016 C23.9806641,18.8390625 18.8390625,23.9806641 12.5041016,23.9806641 Z M14.9923828,18.5470703 C15.3224609,18.5470703 15.5001953,18.3058594 15.5001953,18.0011719 L15.5001953,6.96894531 C15.5001953,6.6515625 15.3224609,6.41035156 14.9923828,6.41035156 C14.7765625,6.41035156 14.5988281,6.52460937 14.4083984,6.68964844 L11.1583984,9.85078125 C11.0822266,9.91425781 10.9933594,9.95234375 10.8664062,9.95234375 L8.60664062,9.95234375 C7.93378906,9.95234375 7.43867187,10.4347656 7.43867187,11.1203125 L7.43867187,13.9005859 C7.43867187,14.5861328 7.93378906,15.08125 8.60664062,15.08125 L10.8664062,15.08125 C10.9933594,15.08125 11.0822266,15.1193359 11.1583984,15.1828125 L14.4083984,18.2677734 C14.5861328,18.4328125 14.7892578,18.5470703 14.9923828,18.5470703 Z" transform="translate(2 2)"></path></svg>